<svg width="276" height="304" viewBox="0 0 276 304" fill="none" xmlns="http://www.w3.org/2000/svg">
<g clip-path="url(#clip0_2_24)">
<path d="M116.107 141.038C103.145 141.038 90.4742 137.194 79.6965 129.993C68.9189 122.791 60.5187 112.556 55.5583 100.58C50.5979 88.6049 49.3 75.4274 51.8288 62.7143C54.3576 50.0012 60.5995 38.3235 69.7651 29.1578C78.9308 19.9922 90.6085 13.7503 103.322 11.2215C116.035 8.69273 129.212 9.9906 141.188 14.951C153.163 19.9114 163.399 28.3116 170.6 39.0892C177.802 49.8668 181.645 62.5379 181.645 75.5001C181.626 92.8758 174.714 109.534 162.428 121.821C150.141 134.107 133.483 141.018 116.107 141.038ZM116.107 10.9943C103.349 10.9943 90.8778 14.7775 80.2699 21.8655C69.662 28.9535 61.3941 39.0279 56.5119 50.8148C51.6296 62.6017 50.3521 75.5716 52.8411 88.0845C55.3301 100.597 61.4736 112.091 70.4949 121.113C79.5162 130.134 91.0101 136.277 103.523 138.766C116.036 141.255 129.006 139.978 140.793 135.096C152.58 130.213 162.654 121.945 169.742 111.338C176.83 100.73 180.613 88.2581 180.613 75.5001C180.594 58.398 173.792 42.002 161.699 29.909C149.606 17.816 133.209 11.0136 116.107 10.9943Z" fill="#F2F2F2"/>
<path d="M121.109 89.8409H163.132C163.269 89.8409 163.4 89.7865 163.497 89.6897C163.594 89.593 163.648 89.4617 163.648 89.3248C163.648 89.188 163.594 89.0567 163.497 88.9599C163.4 88.8632 163.269 88.8088 163.132 88.8088H121.109C120.972 88.8088 120.84 88.8632 120.744 88.9599C120.647 89.0567 120.593 89.188 120.593 89.3248C120.593 89.4617 120.647 89.593 120.744 89.6897C120.84 89.7865 120.972 89.8409 121.109 89.8409Z" fill="#3F3D56"/>
<path d="M173.602 88.2927C170.094 88.2967 166.732 89.6918 164.251 92.1721C161.771 94.6524 160.376 98.0153 160.372 101.523V157.63C160.376 161.138 161.771 164.5 164.251 166.981C166.732 169.461 170.094 170.856 173.602 170.86H260.672C264.179 170.856 267.542 169.461 270.023 166.981C272.503 164.5 273.898 161.138 273.902 157.63V101.523C273.898 98.0153 272.503 94.6524 270.023 92.1721C267.542 89.6918 264.179 88.2967 260.672 88.2927H173.602Z" fill="white"/>
<path d="M260.672 171.376H173.602C169.958 171.372 166.464 169.922 163.887 167.345C161.309 164.768 159.86 161.274 159.856 157.63V101.523C159.86 97.8785 161.309 94.3845 163.887 91.8074C166.464 89.2304 169.958 87.7808 173.602 87.7767H260.672C264.316 87.7808 267.81 89.2304 270.387 91.8074C272.964 94.3845 274.414 97.8785 274.418 101.523V157.63C274.414 161.274 272.964 164.768 270.387 167.345C267.81 169.922 264.316 171.372 260.672 171.376ZM173.602 88.8088C170.231 88.8125 166.999 90.1533 164.616 92.5368C162.232 94.9204 160.892 98.1521 160.888 101.523V157.63C160.892 161.001 162.232 164.232 164.616 166.616C166.999 169 170.231 170.34 173.602 170.344H260.672C264.043 170.34 267.274 169 269.658 166.616C272.041 164.232 273.382 161.001 273.386 157.63V101.523C273.382 98.1521 272.041 94.9204 269.658 92.5368C267.274 90.1533 264.043 88.8125 260.672 88.8088H173.602Z" fill="#3F3D56"/>
<path d="M119.616 85.0101C118.314 85.2362 117.152 85.9613 116.377 87.0312C115.602 88.101 115.275 89.4311 115.465 90.7385C115.508 91.0037 115.573 91.2648 115.659 91.5192L89.6984 114.399L99.3144 121.134L122.257 94.4078C123.285 93.9695 124.138 93.2035 124.685 92.2291C125.231 91.2548 125.439 90.127 125.277 89.0218C125.179 88.3938 124.958 87.7913 124.627 87.2487C124.296 86.7061 123.861 86.234 123.348 85.8594C122.834 85.4848 122.252 85.2151 121.634 85.0655C121.016 84.9159 120.375 84.8895 119.747 84.9878C119.703 84.9946 119.66 85.0021 119.616 85.0101Z" fill="#A0616A"/>
<path d="M109.768 110.901C109.768 110.901 103.911 117.645 96.7794 125.283C96.284 125.809 95.7886 126.341 95.2777 126.877C90.9429 131.47 86.2727 136.239 82.2218 139.939C77.9024 143.897 74.285 146.652 72.5304 146.719C72.3843 146.729 72.2377 146.713 72.0969 146.673C66.8487 145.094 71.1732 146.972 68.9284 150.177C66.6733 153.387 66.952 149.176 61.8999 146.673C56.8581 144.17 59.5415 146.658 57.529 150.61C56.9045 151.849 51.4241 151.596 44.1995 150.667C43.3841 143.778 42.1972 137.833 42.1972 137.833C42.1824 133.701 42.6045 129.579 43.4564 125.536C56.0427 125.309 66.4514 125.18 66.9829 125.345C68.3556 125.763 71.3074 124.705 74.5688 122.863C75.0332 122.599 75.9105 121.991 77.0716 121.134C78.0986 120.38 79.337 119.441 80.7149 118.389C82.263 117.191 84.9 116.536 85.7567 114.451C88.244 108.434 87.3925 112.924 88.0582 112.645C88.8168 112.325 90.1586 112.201 90.9429 111.742C91.1576 111.648 91.3342 111.484 91.4438 111.277C91.5535 111.07 91.5897 110.832 91.5467 110.601C91.5084 110.406 91.4424 110.216 91.3506 110.039C90.6385 108.609 91.7222 108.47 92.7439 108.32C93.1674 108.3 93.5797 108.177 93.9463 107.964C98.0489 104.693 101.156 102.18 101.156 102.18L102.27 103.315L102.275 103.32L108.87 109.998L109.768 110.901Z" fill="#3F3D56"/>
<path d="M104.142 303.367H38.9252C36.1336 303.367 33.8623 300.499 33.8623 296.976V227.677C33.8623 224.153 36.1336 221.286 38.9252 221.286H104.142C106.934 221.286 109.205 224.153 109.205 227.677V296.976C109.205 300.499 106.934 303.367 104.142 303.367Z" fill="#F2F2F2"/>
<path d="M3.3614e-05 303.225C-0.0193418 303.409 0.0340982 303.593 0.148904 303.738C0.26371 303.883 0.430741 303.977 0.614161 304H275.3C275.475 303.959 275.631 303.86 275.742 303.719C275.854 303.579 275.914 303.404 275.914 303.225C275.914 303.045 275.854 302.871 275.742 302.73C275.631 302.59 275.475 302.491 275.3 302.45H0.61413C0.430717 302.473 0.263702 302.567 0.148904 302.712C0.034106 302.857 -0.0193356 303.041 3.3614e-05 303.225Z" fill="#CCCCCC"/>
<path d="M149.429 293.756L156.004 293.756L159.132 268.393L149.427 268.394L149.429 293.756Z" fill="#A0616A"/>
<path d="M149.197 300.616L169.418 300.615V300.359C169.417 298.272 168.588 296.27 167.112 294.794C165.636 293.318 163.635 292.489 161.547 292.489L157.853 289.687L150.962 292.489L149.197 292.49L149.197 300.616Z" fill="#2F2E41"/>
<path d="M108.587 290.733L114.917 292.514L124.802 268.948L115.46 266.319L108.587 290.733Z" fill="#A0616A"/>
<path d="M106.505 297.273L125.969 302.752L126.039 302.506C126.604 300.497 126.349 298.345 125.328 296.525C124.307 294.704 122.605 293.363 120.596 292.797L117.8 289.099L110.407 289.929L108.708 289.451L106.505 297.273Z" fill="#2F2E41"/>
<path d="M91.7376 182.729C91.7376 182.729 89.6323 182.52 95.0301 184.388C100.872 186.416 109.737 186.153 118.226 189.197C120.848 190.136 123.506 191.096 126.143 192.056C126.674 192.247 127.206 192.443 127.737 192.634C131.169 193.888 134.544 195.142 137.733 196.339C138.182 196.51 138.626 196.68 139.064 196.845C139.075 196.85 139.085 196.85 139.09 196.855C149.488 200.808 157.668 204.194 159.02 205.546C160.465 206.99 161.063 216.754 161.228 228.819C161.528 251.18 160.346 281.451 160.346 281.451L148.183 281.404C148.183 281.404 148.105 281.136 147.956 280.635C147.687 279.712 147.187 277.993 146.521 275.748C143.755 266.372 138.187 247.789 135.111 239.28C134.244 236.875 133.574 235.275 133.218 234.914C131.153 232.798 133.218 231.864 135.282 230.522C137.346 229.18 135.282 228.768 133.765 227.013C132.247 225.259 134.332 221.306 134.332 221.306C134.332 221.306 132.96 221.27 130.771 221.213C127.541 221.13 122.515 221.006 117.483 220.882C117.478 220.888 117.478 220.888 117.478 220.882C115.584 220.836 113.69 220.79 111.895 220.748C110.501 220.712 109.165 220.681 107.926 220.65C104.216 220.568 101.408 220.511 100.707 220.511C98.4154 220.511 100.196 220.511 98.8127 218.7C98.6005 218.429 98.3713 218.172 98.1264 217.931C97.7796 217.544 97.3997 217.188 96.9911 216.868C96.7021 216.733 97.0943 217.564 96.8775 218.643C96.759 219.227 96.4823 219.768 96.0777 220.206C94.029 222.482 87.7435 220.026 87.7435 220.026C77.402 225.197 68.9182 224.825 62.385 222.405C57.6921 220.597 53.4827 217.724 50.0876 214.014C48.7439 212.601 47.5378 211.063 46.4857 209.421L45.6342 209.261C45.6342 209.261 44.4885 170.876 45.8096 168.28C47.8686 164.234 78.3205 167.248 78.3205 167.248L91.7376 182.729Z" fill="#2F2E41"/>
<path d="M148.459 27.3993H190.482C190.619 27.3993 190.75 27.3449 190.847 27.2481C190.944 27.1513 190.998 27.0201 190.998 26.8832C190.998 26.7464 190.944 26.6151 190.847 26.5183C190.75 26.4216 190.619 26.3672 190.482 26.3672H148.459C148.322 26.3672 148.191 26.4216 148.094 26.5183C147.997 26.6151 147.943 26.7464 147.943 26.8832C147.943 27.0201 147.997 27.1513 148.094 27.2481C148.191 27.3449 148.322 27.3993 148.459 27.3993Z" fill="#3F3D56"/>
<path d="M205.354 68.439C196.834 57.106 191.909 44.4328 191.748 29.9844C191.473 29.2057 191.519 28.35 191.874 27.6049C192.23 26.8598 192.867 26.2862 193.645 26.01L222.686 15.7342C223.465 15.4597 224.321 15.5053 225.066 15.8609C225.811 16.2165 226.384 16.8532 226.661 17.6312L240.267 56.0858C240.542 56.8644 240.496 57.7202 240.14 58.4652C239.785 59.2103 239.148 59.7839 238.37 60.0602L209.328 70.336C208.55 70.6105 207.694 70.5649 206.949 70.2093C206.204 69.8537 205.63 69.217 205.354 68.439Z" fill="#E6E6E6"/>
<path d="M203.472 56.0359C198.347 50.8546 196.154 41.6135 194.724 31.3137C194.467 30.5845 194.51 29.7831 194.843 29.0853C195.176 28.3875 195.772 27.8503 196.501 27.5916L221.46 18.7604C222.189 18.5033 222.991 18.546 223.688 18.879C224.386 19.2121 224.924 19.8083 225.182 20.537L237.29 54.7563C237.547 55.4856 237.504 56.287 237.171 56.9848C236.838 57.6826 236.242 58.2198 235.513 58.4785L220.052 63.9492C216.804 65.0944 213.234 64.9044 210.126 63.4209C207.017 61.9373 204.624 59.2814 203.472 56.0359Z" fill="white"/>
<path d="M225.516 38.9711L206.074 45.911C205.921 45.9657 205.758 45.9897 205.596 45.9816C205.433 45.9735 205.274 45.9334 205.127 45.8638C204.98 45.7941 204.848 45.6962 204.739 45.5756C204.63 45.455 204.546 45.3141 204.491 45.1609C204.436 45.0077 204.412 44.8452 204.421 44.6828C204.429 44.5203 204.469 44.361 204.538 44.2141C204.608 44.0671 204.706 43.9352 204.827 43.8261C204.947 43.717 205.088 43.6326 205.241 43.5779L224.684 36.638C224.837 36.5833 224.999 36.5594 225.162 36.5675C225.324 36.5756 225.483 36.6156 225.63 36.6852C225.777 36.7549 225.909 36.8528 226.018 36.9734C226.128 37.094 226.212 37.235 226.267 37.3881C226.321 37.5413 226.345 37.7038 226.337 37.8663C226.329 38.0287 226.289 38.188 226.219 38.335C226.15 38.482 226.052 38.6138 225.931 38.7229C225.811 38.8321 225.67 38.9164 225.516 38.9711Z" fill="#6C63FF"/>
<path d="M208.068 37.9868L203.791 39.5136C203.481 39.6237 203.141 39.6064 202.844 39.4657C202.548 39.325 202.319 39.0722 202.209 38.7631C202.098 38.4539 202.115 38.1135 202.256 37.8168C202.396 37.5201 202.649 37.2912 202.958 37.1805L207.235 35.6538C207.544 35.5433 207.885 35.5603 208.182 35.701C208.479 35.8417 208.708 36.0945 208.818 36.4039C208.928 36.7133 208.911 37.0539 208.771 37.3507C208.63 37.6476 208.377 37.8764 208.068 37.9868Z" fill="#6C63FF"/>
<path d="M229.178 49.228L209.735 56.1679C209.582 56.2226 209.42 56.2465 209.257 56.2384C209.095 56.2303 208.935 56.1903 208.788 56.1206C208.641 56.051 208.51 55.9531 208.4 55.8325C208.291 55.7119 208.207 55.5709 208.152 55.4177C208.098 55.2646 208.074 55.1021 208.082 54.9396C208.09 54.7772 208.13 54.6179 208.2 54.4709C208.269 54.3239 208.367 54.1921 208.488 54.083C208.608 53.9738 208.749 53.8895 208.902 53.8348L228.345 46.8949C228.498 46.84 228.661 46.8159 228.823 46.8238C228.986 46.8318 229.145 46.8718 229.292 46.9414C229.439 47.011 229.571 47.109 229.681 47.2296C229.79 47.3503 229.874 47.4913 229.929 47.6446C229.984 47.7979 230.008 47.9605 229.999 48.123C229.991 48.2856 229.951 48.4449 229.881 48.592C229.812 48.739 229.714 48.8709 229.593 48.98C229.472 49.0891 229.331 49.1734 229.178 49.228Z" fill="#6C63FF"/>
<path d="M227.347 44.0995L207.905 51.0394C207.595 51.1499 207.255 51.1329 206.958 50.9922C206.661 50.8515 206.432 50.5987 206.322 50.2893C206.211 49.9799 206.228 49.6393 206.369 49.3425C206.51 49.0456 206.762 48.8168 207.072 48.7064L226.514 41.7664C226.823 41.6564 227.164 41.6736 227.46 41.8144C227.757 41.9551 227.986 42.2078 228.096 42.517C228.206 42.8262 228.189 43.1665 228.049 43.4633C227.909 43.76 227.656 43.9888 227.347 44.0995Z" fill="#6C63FF"/>
<path d="M193.399 34.1079C196.249 34.1079 198.559 31.7975 198.559 28.9474C198.559 26.0974 196.249 23.787 193.399 23.787C190.549 23.787 188.238 26.0974 188.238 28.9474C188.238 31.7975 190.549 34.1079 193.399 34.1079Z" fill="#6C63FF"/>
<path d="M100.038 17.5944H58.0149C57.878 17.5944 57.7467 17.54 57.6499 17.4433C57.5532 17.3465 57.4988 17.2152 57.4988 17.0784C57.4988 16.9415 57.5532 16.8102 57.6499 16.7135C57.7467 16.6167 57.878 16.5623 58.0149 16.5623H100.038C100.175 16.5623 100.306 16.6167 100.403 16.7135C100.5 16.8102 100.554 16.9415 100.554 17.0784C100.554 17.2152 100.5 17.3465 100.403 17.4433C100.306 17.54 100.175 17.5944 100.038 17.5944Z" fill="#3F3D56"/>
<path d="M3.6719 35.8993C7.32158 22.1985 14.2462 10.4976 25.5091 1.44611C25.9519 0.749278 26.653 0.256539 27.4586 0.075982C28.2642 -0.104575 29.1086 0.0417994 29.8064 0.482994L55.8262 16.975C56.5231 17.4177 57.0158 18.1188 57.1964 18.9244C57.3769 19.7301 57.2305 20.5744 56.7893 21.2722L34.9521 55.7254C34.5093 56.4223 33.8082 56.915 33.0026 57.0956C32.197 57.2761 31.3527 57.1298 30.6548 56.6886L4.63502 40.1966C3.93819 39.7538 3.44544 39.0527 3.26489 38.2471C3.08433 37.4415 3.23071 36.5971 3.6719 35.8993Z" fill="#E6E6E6"/>
<path d="M12.2635 26.758C13.1729 19.5276 19.0854 12.0945 26.3025 4.6084C26.7172 3.95579 27.3738 3.4943 28.1283 3.3252C28.8828 3.1561 29.6735 3.2932 30.327 3.70641L52.6889 17.8799C53.3415 18.2945 53.803 18.9511 53.9721 19.7056C54.1413 20.4601 54.0042 21.2509 53.591 21.9045L34.1588 52.5631C33.7441 53.2157 33.0875 53.6772 32.333 53.8463C31.5785 54.0154 30.7877 53.8783 30.1342 53.465L16.2815 44.6849C13.3745 42.8378 11.3189 39.9131 10.5657 36.5523C9.81244 33.1915 10.423 29.6692 12.2635 26.758Z" fill="white"/>
<path d="M39.3003 33.5537L21.8333 22.5505C21.5557 22.3752 21.3591 22.0969 21.2866 21.7768C21.214 21.4566 21.2716 21.1207 21.4466 20.843C21.6215 20.5652 21.8996 20.3683 22.2197 20.2954C22.5398 20.2226 22.8757 20.2798 23.1537 20.4545L40.6207 31.4577C40.7585 31.5443 40.8779 31.6572 40.972 31.79C41.0662 31.9228 41.1332 32.0728 41.1693 32.2315C41.2055 32.3902 41.2099 32.5545 41.1825 32.7149C41.1551 32.8754 41.0964 33.0289 41.0096 33.1666C40.9228 33.3043 40.8098 33.4236 40.6769 33.5176C40.544 33.6116 40.3939 33.6785 40.2352 33.7144C40.0765 33.7504 39.9122 33.7547 39.7518 33.7271C39.5913 33.6995 39.4379 33.6406 39.3003 33.5537Z" fill="#6C63FF"/>
<path d="M29.2966 19.2238L25.4539 16.8031C25.316 16.7165 25.1967 16.6035 25.1025 16.4708C25.0084 16.338 24.9413 16.1879 24.9052 16.0292C24.8691 15.8705 24.8646 15.7063 24.892 15.5458C24.9194 15.3854 24.9782 15.2319 25.0649 15.0942C25.1517 14.9565 25.2648 14.8372 25.3976 14.7432C25.5305 14.6492 25.6806 14.5823 25.8394 14.5463C25.9981 14.5104 26.1624 14.5061 26.3228 14.5337C26.4832 14.5612 26.6366 14.6201 26.7742 14.707L30.617 17.1277C30.7548 17.2144 30.8742 17.3273 30.9683 17.4601C31.0625 17.5929 31.1295 17.7429 31.1656 17.9016C31.2017 18.0603 31.2062 18.2246 31.1788 18.385C31.1514 18.5455 31.0926 18.6989 31.0059 18.8366C30.9191 18.9744 30.8061 19.0936 30.6732 19.1876C30.5403 19.2816 30.3902 19.3485 30.2315 19.3845C30.0727 19.4204 29.9085 19.4248 29.748 19.3972C29.5876 19.3696 29.4342 19.3107 29.2966 19.2238Z" fill="#6C63FF"/>
<path d="M33.4955 42.7685L16.0285 31.7652C15.8907 31.6786 15.7713 31.5657 15.6772 31.4329C15.5831 31.3001 15.516 31.1501 15.4799 30.9914C15.4438 30.8327 15.4393 30.6684 15.4667 30.508C15.4941 30.3475 15.5529 30.1941 15.6396 30.0563C15.7264 29.9186 15.8394 29.7994 15.9723 29.7054C16.1052 29.6114 16.2553 29.5445 16.414 29.5085C16.5728 29.4726 16.7371 29.4682 16.8975 29.4958C17.0579 29.5234 17.2113 29.5823 17.3489 29.6692L34.8159 40.6724C35.0935 40.8477 35.2902 41.126 35.3627 41.4462C35.4352 41.7663 35.3776 42.1022 35.2027 42.38C35.0277 42.6577 34.7496 42.8547 34.4295 42.9275C34.1094 43.0004 33.7735 42.9432 33.4955 42.7685Z" fill="#6C63FF"/>
<path d="M36.3979 38.1611L18.9309 27.1579C18.7931 27.0713 18.6737 26.9584 18.5796 26.8256C18.4854 26.6928 18.4184 26.5428 18.3823 26.384C18.3462 26.2253 18.3417 26.0611 18.3691 25.9006C18.3965 25.7402 18.4552 25.5867 18.542 25.449C18.6288 25.3113 18.7418 25.192 18.8747 25.098C19.0076 25.004 19.1577 24.9371 19.3164 24.9012C19.4752 24.8652 19.6394 24.8609 19.7998 24.8885C19.9603 24.916 20.1137 24.975 20.2513 25.0619L37.7183 36.0651C37.9963 36.2402 38.1933 36.5185 38.266 36.8389C38.3388 37.1592 38.2813 37.4954 38.1062 37.7733C38.0195 37.9109 37.9065 38.0301 37.7737 38.1241C37.641 38.2181 37.491 38.285 37.3324 38.321C37.012 38.3937 36.6759 38.3362 36.3979 38.1611Z" fill="#6C63FF"/>
<path d="M55.0984 24.303C57.9484 24.303 60.2588 21.9926 60.2588 19.1425C60.2588 16.2925 57.9484 13.9821 55.0984 13.9821C52.2483 13.9821 49.9379 16.2925 49.9379 19.1425C49.9379 21.9926 52.2483 24.303 55.0984 24.303Z" fill="#6C63FF"/>
<path d="M166.048 96.5495C168.898 96.5495 171.209 94.2391 171.209 91.389C171.209 88.539 168.898 86.2285 166.048 86.2285C163.198 86.2285 160.888 88.539 160.888 91.389C160.888 94.2391 163.198 96.5495 166.048 96.5495Z" fill="#6C63FF"/>
<path d="M141.891 220.34C139.739 232.065 130.621 259.544 125.11 275.629C122.596 282.978 122.39 280.212 122.39 280.212L119.526 279.309L114.696 277.781L112.931 277.224L110.794 276.548C110.794 276.548 109.747 257.857 109.411 243.836C109.298 239.315 109.102 236.085 108.777 235.445C107.435 232.813 109.68 232.534 112.048 231.868C114.422 231.203 112.57 230.202 111.646 228.065C111.021 226.641 112.25 224.747 113.122 223.663C113.362 223.359 113.619 223.068 113.891 222.791C113.891 222.791 107.853 220.737 101.026 218.42C101.021 218.425 101.021 218.42 101.021 218.42C100.334 218.188 99.6427 217.956 98.9512 217.718C101.356 216.851 102.956 216.181 103.317 215.825C105.433 213.76 106.367 215.825 107.709 217.889C109.05 219.953 109.463 217.889 111.218 216.372C112.972 214.854 116.925 216.939 116.925 216.939C116.925 216.939 116.961 215.567 117.018 213.379C117.101 210.148 117.224 205.122 117.348 200.09C117.343 200.085 117.343 200.085 117.348 200.085C117.395 198.191 117.441 196.297 117.482 194.502C121.121 197.288 124.65 200.023 127.85 202.552C127.855 202.557 127.865 202.562 127.865 202.572C135.56 208.652 141.334 213.533 142.144 215.081C142.511 215.783 142.387 217.646 141.891 220.34Z" fill="#2F2E41"/>
<path d="M92.2537 176.537L90.3546 177.77L85.4935 180.928L78.8984 185.206L43.7454 208.015C43.7454 208.015 39.4003 199.16 43.379 191.461C43.891 190.487 44.3075 189.465 44.6226 188.411C46.2327 182.889 43.1364 180.495 43.1364 180.495C43.1364 180.495 37.976 175.474 42.9248 170.845C43.9415 169.895 44.5091 167.95 44.7671 165.452C45.2006 161.344 44.8033 155.75 44.1995 150.667C43.3841 143.778 42.1972 137.833 42.1972 137.833C42.1824 133.701 42.6045 129.579 43.4564 125.536C44.4007 121.18 45.9179 117.042 48.1627 113.605C48.986 112.33 49.9351 111.14 50.9958 110.054C52.4801 108.533 54.2175 107.281 56.1305 106.354C58.9997 104.971 63.9176 105.802 68.2524 106.406C69.1245 106.525 69.9708 106.638 70.7707 106.721C71.5639 106.813 72.3615 106.863 73.16 106.87L74.9558 113.424L75.637 115.906L75.9776 117.15L76.7517 119.978L77.0716 121.134L82.2218 139.939L86.4275 155.275L88.7497 163.749L92.2227 176.418L92.2537 176.537Z" fill="#3F3D56"/>
<path d="M63.4831 102.358C72.1345 102.358 79.1478 95.3444 79.1478 86.693C79.1478 78.0416 72.1345 71.0283 63.4831 71.0283C54.8318 71.0283 47.8184 78.0416 47.8184 86.693C47.8184 95.3444 54.8318 102.358 63.4831 102.358Z" fill="#A0616A"/>
<path d="M60.5488 99.6413L59.2729 103.721C56.4435 102.325 53.5762 100.903 51.2203 98.8036C48.8644 96.7046 47.0423 93.8081 46.9307 90.6548C46.8731 89.0262 47.2675 87.3834 46.9969 85.7764C46.6911 83.9606 45.5704 82.3865 45.0574 80.618C44.5775 78.7657 44.7581 76.804 45.5683 75.0705C46.3784 73.337 47.7674 71.9401 49.4962 71.12C52.0929 69.9788 55.0621 70.2992 57.885 70.0234C60.7078 69.7476 63.8568 68.4706 64.6513 65.7478C64.9484 64.7298 64.9143 63.5296 65.8237 62.863C66.2807 62.5575 66.8346 62.432 67.3787 62.5107C67.9227 62.5894 68.4184 62.8666 68.7701 63.289C70.0995 64.7983 69.7723 66.7858 69.4241 68.5928C71.2548 68.3538 73.0153 67.7349 74.5929 66.7758C76.1704 65.8167 77.5301 64.5386 78.5849 63.0233C79.0801 63.4871 79.4785 64.0444 79.757 64.663C80.0356 65.2817 80.1887 65.9494 80.2076 66.6276C80.2265 67.3058 80.1108 67.981 79.8671 68.6142C79.6235 69.2474 79.2567 69.826 78.7881 70.3167C79.6782 70.317 80.5425 70.0174 81.2414 69.4662C81.9404 68.915 82.4332 68.1443 82.6403 67.2786C83.7213 68.7718 84.8308 70.3289 85.1784 72.1392C85.526 73.9496 84.8809 76.0907 83.2207 76.8918C82.3733 77.2267 81.4639 77.3756 80.5539 77.3285L73.5938 77.4607C71.5241 77.5 69.5508 78.343 68.0914 79.8112C66.632 81.2794 65.801 83.2577 65.7742 85.3277C63.7493 85.1331 61.6637 84.9429 59.7489 85.7957C58.8569 86.1712 58.1053 86.8171 57.5998 87.6423C56.3343 89.8161 57.5898 92.0753 58.7025 94.0524C59.6537 95.7425 60.5554 97.7778 59.7661 99.5492" fill="#2F2E41"/>
<path d="M132.057 258.693L103.015 248.417C102.237 248.141 101.601 247.567 101.245 246.822C100.89 246.077 100.844 245.221 101.118 244.443L114.725 205.988C115.001 205.21 115.575 204.573 116.32 204.218C117.065 203.862 117.921 203.817 118.699 204.091L147.741 214.367C148.519 214.643 149.156 215.217 149.511 215.962C149.867 216.707 149.912 217.563 149.638 218.341C149.476 232.79 144.552 245.463 136.032 256.796C135.755 257.574 135.182 258.211 134.437 258.566C133.692 258.922 132.836 258.967 132.057 258.693Z" fill="#E6E6E6"/>
<path d="M121.334 252.306L105.872 246.835C105.143 246.577 104.547 246.039 104.214 245.342C103.881 244.644 103.838 243.842 104.095 243.113L116.203 208.894C116.462 208.165 116.999 207.569 117.697 207.236C118.395 206.903 119.196 206.86 119.925 207.117L144.884 215.948C145.613 216.207 146.209 216.744 146.542 217.442C146.875 218.14 146.918 218.941 146.661 219.671C145.232 229.97 143.038 239.211 137.914 244.393C136.761 247.638 134.368 250.294 131.26 251.778C128.152 253.261 124.582 253.451 121.334 252.306Z" fill="white"/>
<path d="M115.119 225.745C115.23 225.436 115.459 225.183 115.755 225.043C116.052 224.902 116.392 224.885 116.702 224.995L136.144 231.935C136.298 231.989 136.439 232.074 136.559 232.183C136.68 232.292 136.778 232.424 136.848 232.571C136.918 232.718 136.958 232.877 136.966 233.04C136.974 233.202 136.95 233.365 136.896 233.518C136.841 233.671 136.756 233.812 136.647 233.933C136.538 234.054 136.406 234.152 136.259 234.221C136.112 234.291 135.952 234.331 135.79 234.339C135.627 234.347 135.465 234.323 135.311 234.268L115.869 227.328C115.56 227.217 115.307 226.988 115.167 226.692C115.026 226.395 115.009 226.054 115.119 225.745Z" fill="#6C63FF"/>
<path d="M132.567 224.761C132.678 224.452 132.907 224.199 133.204 224.058C133.501 223.918 133.841 223.901 134.15 224.011L138.428 225.537C138.581 225.592 138.722 225.676 138.842 225.786C138.963 225.895 139.061 226.027 139.131 226.174C139.2 226.321 139.24 226.48 139.248 226.642C139.256 226.805 139.233 226.967 139.178 227.12C139.123 227.274 139.039 227.414 138.93 227.535C138.821 227.656 138.689 227.754 138.542 227.823C138.395 227.893 138.235 227.933 138.073 227.941C137.911 227.949 137.748 227.925 137.595 227.87L133.318 226.344C133.008 226.233 132.756 226.004 132.615 225.707C132.475 225.411 132.457 225.07 132.567 224.761Z" fill="#6C63FF"/>
<path d="M111.458 236.002C111.568 235.693 111.797 235.44 112.094 235.299C112.391 235.159 112.731 235.142 113.041 235.252L132.483 242.192C132.636 242.246 132.777 242.33 132.898 242.44C133.019 242.549 133.117 242.681 133.187 242.828C133.257 242.975 133.297 243.134 133.305 243.297C133.313 243.459 133.289 243.622 133.234 243.775C133.18 243.928 133.095 244.069 132.986 244.19C132.877 244.311 132.745 244.409 132.598 244.478C132.451 244.548 132.291 244.588 132.129 244.596C131.966 244.604 131.803 244.58 131.65 244.525L112.208 237.585C111.899 237.474 111.646 237.245 111.506 236.948C111.365 236.652 111.348 236.311 111.458 236.002Z" fill="#6C63FF"/>
<path d="M113.288 230.873C113.399 230.564 113.628 230.312 113.925 230.171C114.221 230.03 114.562 230.013 114.871 230.123L134.314 237.063C134.467 237.118 134.608 237.202 134.729 237.311C134.85 237.42 134.948 237.552 135.017 237.699C135.087 237.846 135.127 238.006 135.135 238.168C135.144 238.331 135.12 238.493 135.065 238.647C135.01 238.8 134.926 238.941 134.817 239.062C134.707 239.182 134.575 239.28 134.428 239.35C134.281 239.419 134.122 239.459 133.959 239.467C133.797 239.475 133.634 239.451 133.481 239.396L114.039 232.456C113.729 232.346 113.477 232.117 113.336 231.82C113.195 231.523 113.178 231.183 113.288 230.873Z" fill="#6C63FF"/>
<path d="M123.254 204.651C122.882 203.383 122.03 202.31 120.879 201.661C119.728 201.012 118.37 200.837 117.092 201.175C116.834 201.247 116.582 201.341 116.339 201.455L90.6691 178.25L85.0648 188.566L114.215 208.338C114.767 209.31 115.625 210.071 116.655 210.503C117.684 210.936 118.829 211.016 119.908 210.729C120.521 210.561 121.095 210.273 121.596 209.883C122.098 209.492 122.518 209.007 122.832 208.454C123.146 207.902 123.348 207.293 123.427 206.662C123.506 206.031 123.459 205.391 123.291 204.778C123.279 204.736 123.267 204.693 123.254 204.651Z" fill="#A0616A"/>
<path d="M104.102 188.251L103.101 189.489L97.2077 196.802L96.413 197.793C96.413 197.793 87.9963 192.013 78.8984 185.206C67.9789 177.027 56.0789 167.361 56.6104 164.415C57.5857 159.022 56.2079 163.527 52.7659 161.659C49.329 159.786 53.5399 159.585 55.4545 154.285C57.3742 148.99 55.2068 151.937 51.0526 150.389C48.2814 149.356 49.7315 125.68 50.9958 110.054C52.4801 108.533 54.2175 107.281 56.1305 106.354C59.5725 104.693 65.9766 106.225 70.7707 106.721C73.4851 126.728 77.4019 155.993 77.2264 156.917C76.9581 158.325 78.3514 161.138 80.5498 164.172C81.5819 165.607 86.9023 171.061 92.2227 176.418C98.1573 182.394 104.102 188.251 104.102 188.251Z" fill="#3F3D56"/>
<path d="M230.626 114.597H175.989C175.834 114.597 175.681 114.567 175.538 114.508C175.394 114.449 175.264 114.362 175.154 114.252C175.045 114.143 174.958 114.013 174.898 113.87C174.839 113.727 174.808 113.573 174.808 113.418C174.808 113.263 174.839 113.11 174.898 112.967C174.958 112.824 175.045 112.694 175.154 112.584C175.264 112.475 175.394 112.388 175.538 112.329C175.681 112.27 175.834 112.24 175.989 112.24H230.626C230.939 112.241 231.238 112.365 231.458 112.586C231.678 112.807 231.802 113.106 231.802 113.418C231.802 113.73 231.678 114.03 231.458 114.251C231.238 114.472 230.939 114.596 230.626 114.597Z" fill="#6C63FF"/>
<path d="M258.285 125.369H175.989C175.834 125.369 175.681 125.339 175.538 125.28C175.394 125.221 175.264 125.134 175.154 125.024C175.045 124.915 174.958 124.785 174.898 124.642C174.839 124.499 174.808 124.345 174.808 124.19C174.808 124.035 174.839 123.882 174.898 123.739C174.958 123.596 175.045 123.466 175.154 123.356C175.264 123.247 175.394 123.16 175.538 123.101C175.681 123.042 175.834 123.012 175.989 123.012H258.285C258.597 123.013 258.896 123.137 259.116 123.358C259.337 123.579 259.461 123.878 259.461 124.19C259.461 124.502 259.337 124.802 259.116 125.023C258.896 125.244 258.597 125.368 258.285 125.369Z" fill="#F2F2F2"/>
<path d="M258.286 133.782H175.987C175.675 133.782 175.375 133.907 175.154 134.128C174.932 134.349 174.808 134.649 174.808 134.962C174.808 135.274 174.932 135.574 175.154 135.795C175.375 136.016 175.675 136.141 175.987 136.141H258.286C258.599 136.141 258.899 136.016 259.12 135.795C259.341 135.574 259.466 135.274 259.466 134.962C259.466 134.649 259.341 134.349 259.12 134.128C258.899 133.907 258.599 133.782 258.286 133.782Z" fill="#F2F2F2"/>
<path d="M258.285 146.913H175.989C175.834 146.913 175.681 146.883 175.538 146.824C175.394 146.765 175.264 146.678 175.154 146.568C175.045 146.459 174.958 146.329 174.898 146.186C174.839 146.043 174.808 145.889 174.808 145.734C174.808 145.579 174.839 145.426 174.898 145.283C174.958 145.14 175.045 145.01 175.154 144.9C175.264 144.791 175.394 144.704 175.538 144.645C175.681 144.586 175.834 144.556 175.989 144.556H258.285C258.597 144.557 258.896 144.681 259.116 144.902C259.337 145.123 259.461 145.422 259.461 145.734C259.461 146.046 259.337 146.346 259.116 146.567C258.896 146.788 258.597 146.912 258.285 146.913Z" fill="#F2F2F2"/>
</g>
<defs>
<clipPath id="clip0_2_24">
<rect width="275.914" height="304" fill="white"/>
</clipPath>
</defs>
</svg>
