<svg width="226" height="162" viewBox="0 0 226 162" fill="none" xmlns="http://www.w3.org/2000/svg">
<g clip-path="url(#clip0_19_180)">
<path d="M5.97644 161.643C5.97644 161.841 6.13561 162 6.33382 162H225.356C225.554 162 225.713 161.841 225.713 161.643C225.713 161.444 225.554 161.285 225.356 161.285H6.33382C6.13561 161.285 5.97644 161.444 5.97644 161.643Z" fill="#3F3D58"/>
<path d="M76.1108 28.5757H5.86532C3.18645 28.5757 1.0061 26.3954 1.0061 23.7165C1.0061 21.0376 3.18645 18.8573 5.86532 18.8573H76.1108C78.7896 18.8573 80.97 21.0376 80.97 23.7165C80.97 26.3954 78.7896 28.5757 76.1108 28.5757ZM5.86532 19.4579C3.5168 19.4579 1.60675 21.368 1.60675 23.7165C1.60675 26.065 3.5168 27.9751 5.86532 27.9751H76.1108C78.4593 27.9751 80.3693 26.065 80.3693 23.7165C80.3693 21.368 78.4593 19.4579 76.1108 19.4579H5.86532Z" fill="#E2E3E4"/>
<path d="M76.1107 85.4418H5.86531C3.26752 85.4418 1.15625 83.3305 1.15625 80.7327C1.15625 78.1349 3.26752 76.0237 5.86531 76.0237H76.1107C78.7085 76.0237 80.8198 78.1349 80.8198 80.7327C80.8198 83.3305 78.7085 85.4418 76.1107 85.4418Z" fill="#6C63FF"/>
<path d="M53.091 9.41812H4.70906C2.11127 9.41812 0 7.30685 0 4.70906C0 2.11127 2.11127 0 4.70906 0H53.091C55.6888 0 57.8001 2.11127 57.8001 4.70906C57.8001 7.30685 55.6888 9.41812 53.091 9.41812Z" fill="#E2E3E4"/>
<path d="M76.1108 47.5801H5.86532C3.18645 47.5801 1.0061 45.3998 1.0061 42.7209C1.0061 40.042 3.18645 37.8617 5.86532 37.8617H76.1108C78.7896 37.8617 80.97 40.042 80.97 42.7209C80.97 45.3998 78.7896 47.5801 76.1108 47.5801ZM5.86532 38.4623C3.5168 38.4623 1.60675 40.3724 1.60675 42.7209C1.60675 45.0694 3.5168 46.9795 5.86532 46.9795H76.1108C78.4593 46.9795 80.3693 45.0694 80.3693 42.7209C80.3693 40.3724 78.4593 38.4623 76.1108 38.4623H5.86532Z" fill="#E2E3E4"/>
<path d="M76.1108 66.5875H5.86532C3.18645 66.5875 1.0061 64.4072 1.0061 61.7283C1.0061 59.0494 3.18645 56.8691 5.86532 56.8691H76.1108C78.7896 56.8691 80.97 59.0494 80.97 61.7283C80.97 64.4072 78.7896 66.5875 76.1108 66.5875ZM5.86532 57.4697C3.5168 57.4697 1.60675 59.3798 1.60675 61.7283C1.60675 64.0768 3.5168 65.9869 5.86532 65.9869H76.1108C78.4593 65.9869 80.3693 64.0768 80.3693 61.7283C80.3693 59.3798 78.4593 57.4697 76.1108 57.4697H5.86532Z" fill="#E2E3E4"/>
<path d="M3.4507 15.3675H21.8605C22.2989 15.3675 22.6563 15.7219 22.6563 16.1634C22.6563 16.6018 22.2989 16.9592 21.8605 16.9592H3.4507C3.01223 16.9592 2.65485 16.6048 2.65485 16.1634C2.65485 15.7249 3.01223 15.3675 3.4507 15.3675Z" fill="#E2E3E4"/>
<path d="M3.4507 34.8224H21.8605C22.2989 34.8224 22.6563 35.1768 22.6563 35.6153C22.6563 36.0537 22.2989 36.4111 21.8605 36.4111H3.4507C3.01223 36.4111 2.65485 36.0567 2.65485 35.6183C2.65485 35.1798 3.01223 34.8224 3.4507 34.8224Z" fill="#E2E3E4"/>
<path d="M3.4507 54.2803H21.8605C22.2989 54.2803 22.6563 54.6347 22.6563 55.0762C22.6563 55.5146 22.2989 55.869 21.8605 55.869H3.4507C3.01223 55.869 2.65485 55.5146 2.65485 55.0732C2.65485 54.6347 3.01223 54.2803 3.4507 54.2803Z" fill="#E2E3E4"/>
<path d="M134.268 39.7207L127.553 41.9311V32.2637H133.647L134.268 39.7207Z" fill="#9F616A"/>
<path d="M128.385 34.9395C132.08 34.9395 135.076 31.9438 135.076 28.2484C135.076 24.5529 132.08 21.5572 128.385 21.5572C124.689 21.5572 121.694 24.5529 121.694 28.2484C121.694 31.9438 124.689 34.9395 128.385 34.9395Z" fill="#9F616A"/>
<path d="M130.223 27.5846C129.103 27.5516 128.367 26.4194 127.931 25.3863C127.496 24.3532 127.048 23.1669 126.009 22.7404C125.159 22.3921 123.661 24.7496 122.991 24.1219C122.291 23.4672 122.973 20.1066 123.715 19.503C124.457 18.8993 125.472 18.7822 126.427 18.7371C128.757 18.629 131.103 18.8182 133.388 19.2957C134.803 19.5901 136.256 20.0345 137.277 21.0556C138.569 22.353 138.899 24.3081 138.992 26.1371C139.088 28.0081 138.98 29.9662 138.07 31.603C137.16 33.2397 135.256 34.447 133.43 34.0296C133.247 33.0385 133.433 32.0204 133.505 31.0113C133.575 30.0052 133.502 28.9181 132.887 28.1162C132.274 27.3143 130.959 26.996 130.244 27.7078" fill="#2F2E43"/>
<path d="M138.455 29.9031C139.124 29.4136 139.926 29.0022 140.749 29.1043C141.638 29.2124 142.392 29.9452 142.62 30.8131C142.848 31.681 142.593 32.6361 142.041 33.3448C141.491 34.0536 140.671 34.5221 139.806 34.7563C139.305 34.8915 138.755 34.9486 138.278 34.7443C137.575 34.441 137.193 33.543 137.47 32.8283" fill="#2F2E43"/>
<path d="M112.849 92.8597C112.402 95.0581 113.222 97.0673 114.675 97.3466C116.129 97.6259 117.669 96.0672 118.114 93.8688C118.303 92.9919 118.273 92.0849 118.027 91.22L123.562 56.758L116.639 55.4546L113.966 90.4421C113.399 91.1509 113.017 91.9798 112.849 92.8627V92.8597Z" fill="#9F616A"/>
<path d="M127.481 37.4953H122.757C119.417 38.0028 118.51 39.7837 117.75 43.0753C116.591 48.0967 115.111 54.7819 115.405 54.881C115.876 55.0371 123.919 58.8212 128.019 57.9563L127.481 37.4953Z" fill="#E2E3E4"/>
<path d="M132.049 147.266H125.76V156.189H132.049V147.266Z" fill="#9F616A"/>
<path d="M119.637 161.589C118.976 161.589 118.387 161.574 117.943 161.532C116.273 161.378 114.678 160.144 113.876 159.423C113.516 159.099 113.402 158.582 113.588 158.138C113.723 157.82 113.99 157.579 114.324 157.486L118.739 156.225L125.886 151.402L125.967 151.546C125.997 151.6 126.7 152.864 126.934 153.717C127.024 154.041 127 154.312 126.865 154.522C126.772 154.666 126.64 154.75 126.535 154.798C126.664 154.933 127.069 155.21 128.319 155.408C130.142 155.696 130.526 153.807 130.541 153.729L130.553 153.666L130.607 153.63C131.475 153.071 132.01 152.816 132.193 152.87C132.307 152.903 132.499 152.963 133.019 158.108C133.07 158.27 133.433 159.453 133.187 160.586C132.92 161.817 127.538 161.393 126.46 161.297C126.43 161.3 122.399 161.589 119.64 161.589H119.637Z" fill="#2F2E43"/>
<path d="M149.956 140.256L144.62 143.584L149.342 151.155L154.678 147.827L149.956 140.256Z" fill="#9F616A"/>
<path d="M142.869 160.366C142.131 160.366 141.452 160.276 140.968 160.192C140.494 160.108 140.122 159.73 140.043 159.255C139.989 158.913 140.089 158.567 140.323 158.312L143.401 154.906L146.915 147.032L147.059 147.11C147.113 147.14 148.377 147.84 149.029 148.44C149.278 148.669 149.402 148.912 149.396 149.161C149.393 149.335 149.326 149.474 149.26 149.573C149.441 149.621 149.93 149.639 151.095 149.146C152.795 148.428 152.122 146.621 152.092 146.545L152.068 146.485L152.095 146.428C152.537 145.494 152.852 144.996 153.038 144.945C153.156 144.912 153.348 144.861 156.51 148.954C156.639 149.062 157.573 149.876 157.964 150.966C158.387 152.152 153.597 154.642 152.633 155.129C152.603 155.153 147.591 158.796 145.53 159.832C144.713 160.243 143.746 160.369 142.866 160.369L142.869 160.366Z" fill="#2F2E43"/>
<path d="M136.68 72.651H119.072L117.474 89.0306L124.466 149.552H133.454L129.859 114.597L144.44 146.155L152.429 140.563L141.043 111.101C141.043 111.101 145.11 85.4358 141.914 79.0419C138.719 72.651 136.68 72.651 136.68 72.651Z" fill="#2F2E43"/>
<path d="M145.44 73.6481H117.474L125.865 37.4953H138.049L145.44 73.6481Z" fill="#E2E3E4"/>
<path d="M147.957 92.8598C148.404 95.0581 147.584 97.0673 146.131 97.3466C144.677 97.6259 143.137 96.0672 142.692 93.8688C142.503 92.9919 142.533 92.0849 142.779 91.22L137.244 56.758L144.167 55.4546L146.84 90.4422C147.407 91.1509 147.789 91.9798 147.957 92.8628V92.8598Z" fill="#9F616A"/>
<path d="M133.325 37.4953H138.049C141.389 38.0028 142.296 39.7837 143.056 43.0753C144.215 48.0967 145.696 54.7819 145.401 54.881C144.93 55.0371 136.887 58.8212 132.788 57.9563L133.325 37.4953Z" fill="#E2E3E4"/>
</g>
<defs>
<clipPath id="clip0_19_180">
<rect width="225.713" height="162" fill="white"/>
</clipPath>
</defs>
</svg>
